# xmcd
#
# Track frame offsets:
# 150
# 3729
# 23520
# 44536
# 69086
# 71317
# 87139
# 136455
# 150137
# 178296
# 203103
# 211266
# 245328
#
# Disc length: 3609 seconds
#
#
# Revision: 0
# Processed by: cddbd v1.5.1PL0 Copyright (c) Steve Scherf et al.
# Submitted via: FreeRIP 2.00 
#
DISCID=a20e170d
DTITLE=Cowboy Junkies - Ram's Head Tavern - 6-6-2005
DYEAR=2005
DGENRE=Blues
TTITLE0=Dedication To Laura and Mike
TTITLE1=Angel Mine
TTITLE2=Beneath The Gate
TTITLE3=You're Missing
TTITLE4=Dedication To Kelly and Andrew
TTITLE5=Anniversary Song
TTITLE6=Blue Guitar
TTITLE7=Now I Know
TTITLE8=Crew and Band Introductions
TTITLE9=One
TTITLE10=Applause
TTITLE11=Bread and Wine
TTITLE12=Misguided Angel (for Po)
EXTD=
EXTT0=
EXTT1=
EXTT2=
EXTT3=
EXTT4=
EXTT5=
EXTT6=
EXTT7=
EXTT8=
EXTT9=
EXTT10=
EXTT11=
EXTT12=
PLAYORDER=
